<svg width="32" height="37" viewBox="0 0 32 37" fill="none" xmlns="http://www.w3.org/2000/svg">
<g filter="url(#filter0_d_7001_148009)">
<path d="M15.9997 28C16.3719 28 16.7181 27.8304 17.4102 27.4912L22.9735 24.7649C25.4354 23.5584 26.6663 22.9552 26.6663 22V10M15.9997 28C15.6274 28 15.2813 27.8304 14.5891 27.4912L9.02575 24.7649C6.56393 23.5584 5.33301 22.9552 5.33301 22V10M15.9997 28V16" stroke="white" stroke-width="2" stroke-linecap="round" stroke-linejoin="round"/>
<path d="M14.5891 4.50879C15.2813 4.1696 15.6274 4 15.9997 4C16.3719 4 16.7181 4.1696 17.4102 4.50879L22.9735 7.23513C25.4354 8.44155 26.6663 9.04476 26.6663 10C26.6663 10.9552 25.4354 11.5585 22.9735 12.7649L17.4102 15.4912C16.7181 15.8304 16.3719 16 15.9997 16C15.6274 16 15.2813 15.8304 14.5891 15.4912L9.02575 12.7649C6.56393 11.5585 5.33301 10.9552 5.33301 10C5.33301 9.04476 6.56393 8.44155 9.02575 7.23513L14.5891 4.50879Z" stroke="white" stroke-width="2" stroke-linejoin="round"/>
</g>
<defs>
<filter id="filter0_d_7001_148009" x="-4" y="0" width="40" height="40" filterUnits="userSpaceOnUse" color-interpolation-filters="sRGB">
<feFlood flood-opacity="0" result="BackgroundImageFix"/>
<feColorMatrix in="SourceAlpha" type="matrix" values="0 0 0 0 0 0 0 0 0 0 0 0 0 0 0 0 0 0 127 0" result="hardAlpha"/>
<feOffset dy="4"/>
<feGaussianBlur stdDeviation="2"/>
<feComposite in2="hardAlpha" operator="out"/>
<feColorMatrix type="matrix" values="0 0 0 0 0 0 0 0 0 0 0 0 0 0 0 0 0 0 0.25 0"/>
<feBlend mode="normal" in2="BackgroundImageFix" result="effect1_dropShadow_7001_148009"/>
<feBlend mode="normal" in="SourceGraphic" in2="effect1_dropShadow_7001_148009" result="shape"/>
</filter>
</defs>
</svg>
