<svg width="16" height="17" viewBox="0 0 16 17" fill="none" xmlns="http://www.w3.org/2000/svg">
<path d="M7.64997 10.2531L5.2333 7.6854C5.19997 7.64998 5.17508 7.61173 5.15863 7.57065C5.14219 7.52956 5.13375 7.48517 5.1333 7.43748C5.1333 7.34304 5.16397 7.2604 5.2253 7.18956C5.28663 7.11873 5.36708 7.08331 5.46663 7.08331H10.5333C10.6333 7.08331 10.714 7.11873 10.7753 7.18956C10.8366 7.2604 10.8671 7.34304 10.8666 7.43748C10.8666 7.46109 10.8333 7.54373 10.7666 7.6854L8.34997 10.2531C8.29441 10.3121 8.23886 10.3535 8.1833 10.3771C8.12774 10.4007 8.06663 10.4125 7.99997 10.4125C7.9333 10.4125 7.87219 10.4007 7.81663 10.3771C7.76108 10.3535 7.70552 10.3121 7.64997 10.2531Z" fill="black"/>
</svg>
