<svg width="33" height="33" viewBox="0 0 33 33" fill="none" xmlns="http://www.w3.org/2000/svg">
<path d="M3.51855 16.5C3.51855 11.7834 3.51855 9.42507 4.92229 7.85057C5.14681 7.59875 5.39426 7.36584 5.66183 7.15453C7.33473 5.83337 9.84045 5.83337 14.8519 5.83337H18.8519C23.8634 5.83337 26.3691 5.83337 28.0419 7.15453C28.3095 7.36584 28.557 7.59875 28.7815 7.85057C30.1852 9.42507 30.1852 11.7834 30.1852 16.5C30.1852 21.2167 30.1852 23.575 28.7815 25.1495C28.557 25.4014 28.3095 25.6342 28.0419 25.8455C26.3691 27.1667 23.8634 27.1667 18.8519 27.1667H14.8519C9.84045 27.1667 7.33473 27.1667 5.66183 25.8455C5.39426 25.6342 5.14681 25.4014 4.92229 25.1495C3.51855 23.575 3.51855 21.2167 3.51855 16.5Z" stroke="white" stroke-width="2" stroke-linecap="round" stroke-linejoin="round"/>
<path d="M14.1846 21.8334H16.1846" stroke="white" stroke-width="2" stroke-miterlimit="10" stroke-linecap="round" stroke-linejoin="round"/>
<path d="M20.1846 21.8334H24.8512" stroke="white" stroke-width="2" stroke-miterlimit="10" stroke-linecap="round" stroke-linejoin="round"/>
<path d="M3.51855 12.5H30.1852" stroke="white" stroke-width="2" stroke-linejoin="round"/>
</svg>
