<svg width="32" height="32" viewBox="0 0 32 32" fill="none" xmlns="http://www.w3.org/2000/svg">
<path d="M20.2335 29.3333V28.0156V27.9877C20.2403 27.2609 20.8362 26.6734 21.5731 26.6666L21.6731 26.6665C23.5819 26.6513 25.2218 25.3256 25.6113 23.4826L25.6254 23.4134L26.3177 20L27.5727 19.3812C28.2445 19.05 28.5802 18.8844 28.6529 18.5808C28.7255 18.2772 28.5003 17.9809 28.0498 17.3885L25.5065 14.0444C25.2534 13.7116 25.1269 13.5452 25.059 13.3692C24.9913 13.1931 24.9703 12.9436 24.9287 12.4447C24.4707 6.9694 19.8195 2.66663 14.1494 2.66663C8.17565 2.66663 3.33301 7.44225 3.33301 13.3333C3.33301 16.9996 5.20859 20.2337 8.06515 22.1537M8.06515 22.1537V29.3333M8.06515 22.1537C8.89162 22.7092 9.80021 23.1546 10.7692 23.4688" stroke="white" stroke-width="2" stroke-linecap="round" stroke-linejoin="round"/>
<path d="M18.667 12L19.8935 13.0572C20.4091 13.5016 20.667 13.7239 20.667 14C20.667 14.2761 20.4091 14.4984 19.8935 14.9428L18.667 16" stroke="white" stroke-width="2" stroke-linecap="round" stroke-linejoin="round"/>
<path d="M9.33301 12L8.10646 13.0572C7.59083 13.5016 7.33301 13.7239 7.33301 14C7.33301 14.2761 7.59082 14.4984 8.10646 14.9428L9.33301 16" stroke="white" stroke-width="2" stroke-linecap="round" stroke-linejoin="round"/>
<path d="M15.3337 10.6666L12.667 17.3333" stroke="white" stroke-width="2" stroke-linecap="round" stroke-linejoin="round"/>
</svg>
