<svg width="33" height="33" viewBox="0 0 33 33" fill="none" xmlns="http://www.w3.org/2000/svg">
<path d="M10.9085 18.4594C12.7885 18.4594 14.2951 19.9808 14.2951 21.8741V26.4194C14.2951 28.2994 12.7885 29.8328 10.9085 29.8328H6.4018C4.53514 29.8328 3.01514 28.2994 3.01514 26.4194V21.8741C3.01514 19.9808 4.53514 18.4594 6.4018 18.4594H10.9085ZM26.2953 18.4594C28.1619 18.4594 29.6819 19.9808 29.6819 21.8741V26.4194C29.6819 28.2994 28.1619 29.8328 26.2953 29.8328H21.7886C19.9086 29.8328 18.4019 28.2994 18.4019 26.4194V21.8741C18.4019 19.9808 19.9086 18.4594 21.7886 18.4594H26.2953ZM10.9085 3.1665C12.7885 3.1665 14.2951 4.69984 14.2951 6.58117V11.1265C14.2951 13.0198 12.7885 14.5398 10.9085 14.5398H6.4018C4.53514 14.5398 3.01514 13.0198 3.01514 11.1265V6.58117C3.01514 4.69984 4.53514 3.1665 6.4018 3.1665H10.9085ZM26.2953 3.1665C28.1619 3.1665 29.6819 4.69984 29.6819 6.58117V11.1265C29.6819 13.0198 28.1619 14.5398 26.2953 14.5398H21.7886C19.9086 14.5398 18.4019 13.0198 18.4019 11.1265V6.58117C18.4019 4.69984 19.9086 3.1665 21.7886 3.1665H26.2953Z" fill="#FF6A58"/>
</svg>
