<svg width="32" height="32" viewBox="0 0 32 32" fill="none" xmlns="http://www.w3.org/2000/svg">
<path d="M10.5598 17.9594C12.4398 17.9594 13.9465 19.4808 13.9465 21.3741V25.9194C13.9465 27.7994 12.4398 29.3328 10.5598 29.3328H6.05317C4.1865 29.3328 2.6665 27.7994 2.6665 25.9194V21.3741C2.6665 19.4808 4.1865 17.9594 6.05317 17.9594H10.5598ZM25.9466 17.9594C27.8133 17.9594 29.3333 19.4808 29.3333 21.3741V25.9194C29.3333 27.7994 27.8133 29.3328 25.9466 29.3328H21.44C19.56 29.3328 18.0533 27.7994 18.0533 25.9194V21.3741C18.0533 19.4808 19.56 17.9594 21.44 17.9594H25.9466ZM10.5598 2.6665C12.4398 2.6665 13.9465 4.19984 13.9465 6.08117V10.6265C13.9465 12.5198 12.4398 14.0398 10.5598 14.0398H6.05317C4.1865 14.0398 2.6665 12.5198 2.6665 10.6265V6.08117C2.6665 4.19984 4.1865 2.6665 6.05317 2.6665H10.5598ZM25.9466 2.6665C27.8133 2.6665 29.3333 4.19984 29.3333 6.08117V10.6265C29.3333 12.5198 27.8133 14.0398 25.9466 14.0398H21.44C19.56 14.0398 18.0533 12.5198 18.0533 10.6265V6.08117C18.0533 4.19984 19.56 2.6665 21.44 2.6665H25.9466Z" fill="#8A16FF"/>
</svg>
