<svg width="104" height="20" viewBox="0 0 104 20" fill="none" xmlns="http://www.w3.org/2000/svg">
<path d="M18.3203 8.93578L14.7969 12.0108L15.8524 16.5889C15.9082 16.8282 15.8923 17.0787 15.8065 17.309C15.7208 17.5394 15.5691 17.7393 15.3703 17.8839C15.1716 18.0284 14.9346 18.1112 14.6891 18.1218C14.4436 18.1324 14.2004 18.0704 13.9899 17.9436L9.99689 15.5217L6.01252 17.9436C5.80202 18.0704 5.55881 18.1324 5.31328 18.1218C5.06775 18.1112 4.83079 18.0284 4.63204 17.8839C4.4333 17.7393 4.28157 17.5394 4.19584 17.309C4.1101 17.0787 4.09416 16.8282 4.15002 16.5889L5.20392 12.0155L1.6797 8.93578C1.49331 8.77502 1.35852 8.5628 1.29225 8.32574C1.22598 8.08868 1.23117 7.83733 1.30718 7.60321C1.38319 7.36909 1.52663 7.16262 1.71952 7.0097C1.9124 6.85678 2.14614 6.76421 2.39142 6.74359L7.03674 6.34125L8.85002 2.01625C8.94471 1.78931 9.10443 1.59546 9.30907 1.45911C9.51371 1.32276 9.75411 1.25 10 1.25C10.2459 1.25 10.4863 1.32276 10.691 1.45911C10.8956 1.59546 11.0553 1.78931 11.15 2.01625L12.9688 6.34125L17.6125 6.74359C17.8578 6.76421 18.0915 6.85678 18.2844 7.0097C18.4773 7.16262 18.6207 7.36909 18.6968 7.60321C18.7728 7.83733 18.778 8.08868 18.7117 8.32574C18.6454 8.5628 18.5106 8.77502 18.3242 8.93578H18.3203Z" fill="#FFDA2C"/>
<path d="M39.3203 8.93578L35.7969 12.0108L36.8524 16.5889C36.9082 16.8282 36.8923 17.0787 36.8065 17.309C36.7208 17.5394 36.5691 17.7393 36.3703 17.8839C36.1716 18.0284 35.9346 18.1112 35.6891 18.1218C35.4436 18.1324 35.2004 18.0704 34.9899 17.9436L30.9969 15.5217L27.0125 17.9436C26.802 18.0704 26.5588 18.1324 26.3133 18.1218C26.0677 18.1112 25.8308 18.0284 25.632 17.8839C25.4333 17.7393 25.2816 17.5394 25.1958 17.309C25.1101 17.0787 25.0942 16.8282 25.15 16.5889L26.2039 12.0155L22.6797 8.93578C22.4933 8.77502 22.3585 8.5628 22.2922 8.32574C22.226 8.08868 22.2312 7.83733 22.3072 7.60321C22.3832 7.36909 22.5266 7.16262 22.7195 7.0097C22.9124 6.85678 23.1461 6.76421 23.3914 6.74359L28.0367 6.34125L29.85 2.01625C29.9447 1.78931 30.1044 1.59546 30.3091 1.45911C30.5137 1.32276 30.7541 1.25 31 1.25C31.2459 1.25 31.4863 1.32276 31.691 1.45911C31.8956 1.59546 32.0553 1.78931 32.15 2.01625L33.9688 6.34125L38.6125 6.74359C38.8578 6.76421 39.0915 6.85678 39.2844 7.0097C39.4773 7.16262 39.6207 7.36909 39.6968 7.60321C39.7728 7.83733 39.778 8.08868 39.7117 8.32574C39.6454 8.5628 39.5106 8.77502 39.3242 8.93578H39.3203Z" fill="#FFDA2C"/>
<path d="M60.3203 8.93578L56.7969 12.0108L57.8524 16.5889C57.9082 16.8282 57.8923 17.0787 57.8065 17.309C57.7208 17.5394 57.5691 17.7393 57.3703 17.8839C57.1716 18.0284 56.9346 18.1112 56.6891 18.1218C56.4436 18.1324 56.2004 18.0704 55.9899 17.9436L51.9969 15.5217L48.0125 17.9436C47.802 18.0704 47.5588 18.1324 47.3133 18.1218C47.0677 18.1112 46.8308 18.0284 46.632 17.8839C46.4333 17.7393 46.2816 17.5394 46.1958 17.309C46.1101 17.0787 46.0942 16.8282 46.15 16.5889L47.2039 12.0155L43.6797 8.93578C43.4933 8.77502 43.3585 8.5628 43.2922 8.32574C43.226 8.08868 43.2312 7.83733 43.3072 7.60321C43.3832 7.36909 43.5266 7.16262 43.7195 7.0097C43.9124 6.85678 44.1461 6.76421 44.3914 6.74359L49.0367 6.34125L50.85 2.01625C50.9447 1.78931 51.1044 1.59546 51.3091 1.45911C51.5137 1.32276 51.7541 1.25 52 1.25C52.2459 1.25 52.4863 1.32276 52.691 1.45911C52.8956 1.59546 53.0553 1.78931 53.15 2.01625L54.9688 6.34125L59.6125 6.74359C59.8578 6.76421 60.0915 6.85678 60.2844 7.0097C60.4773 7.16262 60.6207 7.36909 60.6968 7.60321C60.7728 7.83733 60.778 8.08868 60.7117 8.32574C60.6454 8.5628 60.5106 8.77502 60.3242 8.93578H60.3203Z" fill="#FFDA2C"/>
<path d="M81.3203 8.93578L77.7969 12.0108L78.8524 16.5889C78.9082 16.8282 78.8923 17.0787 78.8065 17.309C78.7208 17.5394 78.5691 17.7393 78.3703 17.8839C78.1716 18.0284 77.9346 18.1112 77.6891 18.1218C77.4436 18.1324 77.2004 18.0704 76.9899 17.9436L72.9969 15.5217L69.0125 17.9436C68.802 18.0704 68.5588 18.1324 68.3133 18.1218C68.0677 18.1112 67.8308 18.0284 67.632 17.8839C67.4333 17.7393 67.2816 17.5394 67.1958 17.309C67.1101 17.0787 67.0942 16.8282 67.15 16.5889L68.2039 12.0155L64.6797 8.93578C64.4933 8.77502 64.3585 8.5628 64.2922 8.32574C64.226 8.08868 64.2312 7.83733 64.3072 7.60321C64.3832 7.36909 64.5266 7.16262 64.7195 7.0097C64.9124 6.85678 65.1461 6.76421 65.3914 6.74359L70.0367 6.34125L71.85 2.01625C71.9447 1.78931 72.1044 1.59546 72.3091 1.45911C72.5137 1.32276 72.7541 1.25 73 1.25C73.2459 1.25 73.4863 1.32276 73.691 1.45911C73.8956 1.59546 74.0553 1.78931 74.15 2.01625L75.9688 6.34125L80.6125 6.74359C80.8578 6.76421 81.0915 6.85678 81.2844 7.0097C81.4773 7.16262 81.6207 7.36909 81.6968 7.60321C81.7728 7.83733 81.778 8.08868 81.7117 8.32574C81.6454 8.5628 81.5106 8.77502 81.3242 8.93578H81.3203Z" fill="#FFDA2C"/>
<path d="M102.32 8.93578L98.7969 12.0108L99.8524 16.5889C99.9082 16.8282 99.8923 17.0787 99.8065 17.309C99.7208 17.5394 99.5691 17.7393 99.3703 17.8839C99.1716 18.0284 98.9346 18.1112 98.6891 18.1218C98.4436 18.1324 98.2004 18.0704 97.9899 17.9436L93.9969 15.5217L90.0125 17.9436C89.802 18.0704 89.5588 18.1324 89.3133 18.1218C89.0677 18.1112 88.8308 18.0284 88.632 17.8839C88.4333 17.7393 88.2816 17.5394 88.1958 17.309C88.1101 17.0787 88.0942 16.8282 88.15 16.5889L89.2039 12.0155L85.6797 8.93578C85.4933 8.77502 85.3585 8.5628 85.2922 8.32574C85.226 8.08868 85.2312 7.83733 85.3072 7.60321C85.3832 7.36909 85.5266 7.16262 85.7195 7.0097C85.9124 6.85678 86.1461 6.76421 86.3914 6.74359L91.0367 6.34125L92.85 2.01625C92.9447 1.78931 93.1044 1.59546 93.3091 1.45911C93.5137 1.32276 93.7541 1.25 94 1.25C94.2459 1.25 94.4863 1.32276 94.691 1.45911C94.8956 1.59546 95.0553 1.78931 95.15 2.01625L96.9688 6.34125L101.613 6.74359C101.858 6.76421 102.092 6.85678 102.284 7.0097C102.477 7.16262 102.621 7.36909 102.697 7.60321C102.773 7.83733 102.778 8.08868 102.712 8.32574C102.645 8.5628 102.511 8.77502 102.324 8.93578H102.32Z" fill="#FFDA2C"/>
</svg>
