<svg width="28" height="28" viewBox="0 0 28 28" fill="none" xmlns="http://www.w3.org/2000/svg">
<path d="M13.8925 7.30275C10.1301 7.30275 7.09528 10.3375 7.09528 14.0999C7.09528 17.8623 10.1301 20.8971 13.8925 20.8971C17.6549 20.8971 20.6896 17.8623 20.6896 14.0999C20.6896 10.3375 17.6549 7.30275 13.8925 7.30275ZM13.8925 18.519C11.4611 18.519 9.47341 16.5372 9.47341 14.0999C9.47341 11.6626 11.4552 9.68087 13.8925 9.68087C16.3297 9.68087 18.3115 11.6626 18.3115 14.0999C18.3115 16.5372 16.3238 18.519 13.8925 18.519ZM22.5531 7.02471C22.5531 7.90615 21.8432 8.61012 20.9677 8.61012C20.0862 8.61012 19.3823 7.90024 19.3823 7.02471C19.3823 6.14918 20.0922 5.43929 20.9677 5.43929C21.8432 5.43929 22.5531 6.14918 22.5531 7.02471ZM27.055 8.63379C26.9544 6.51004 26.4693 4.62883 24.9135 3.07891C23.3636 1.52898 21.4824 1.04389 19.3586 0.937411C17.1698 0.813181 10.6092 0.813181 8.42041 0.937411C6.30257 1.03798 4.42137 1.52307 2.86553 3.07299C1.30969 4.62292 0.830516 6.50412 0.724032 8.62787C0.599802 10.8167 0.599802 17.3772 0.724032 19.5661C0.8246 21.6898 1.30969 23.571 2.86553 25.1209C4.42137 26.6709 6.29666 27.156 8.42041 27.2624C10.6092 27.3867 17.1698 27.3867 19.3586 27.2624C21.4824 27.1619 23.3636 26.6768 24.9135 25.1209C26.4634 23.571 26.9485 21.6898 27.055 19.5661C27.1792 17.3772 27.1792 10.8226 27.055 8.63379ZM24.2273 21.9146C23.7658 23.0741 22.8726 23.9674 21.7072 24.4347C19.962 25.1269 15.821 24.9671 13.8925 24.9671C11.9639 24.9671 7.817 25.1209 6.07778 24.4347C4.91829 23.9733 4.02501 23.08 3.55767 21.9146C2.86553 20.1695 3.02525 16.0285 3.02525 14.0999C3.02525 12.1714 2.87145 8.02447 3.55767 6.28524C4.0191 5.12575 4.91237 4.23248 6.07778 3.76513C7.82292 3.07299 11.9639 3.23272 13.8925 3.23272C15.821 3.23272 19.9679 3.07891 21.7072 3.76513C22.8666 4.22656 23.7599 5.11984 24.2273 6.28524C24.9194 8.03038 24.7597 12.1714 24.7597 14.0999C24.7597 16.0285 24.9194 20.1754 24.2273 21.9146Z" fill="white"/>
</svg>
