<svg width="14" height="15" viewBox="0 0 14 15" fill="none" xmlns="http://www.w3.org/2000/svg">
<g clip-path="url(#clip0_7264_1858)">
<path d="M0.4375 7.5C0.4375 10.5703 2.275 13.1719 4.8125 14.1328V0.867188C2.275 1.82812 0.4375 4.42969 0.4375 7.5ZM13.5625 7.5C13.5625 4.42969 11.7469 1.82812 9.1875 0.867188V14.1328C11.7469 13.1719 13.5625 10.5703 13.5625 7.5Z" fill="#83BF4F"/>
<path d="M4.8125 14.1328C5.49062 14.3906 6.23438 14.5312 7 14.5312C7.76562 14.5312 8.50938 14.3906 9.1875 14.1328V0.867188C8.50938 0.609375 7.76562 0.46875 7 0.46875C6.23438 0.46875 5.49062 0.609375 4.8125 0.867188V14.1328Z" fill="#F9F9F9"/>
</g>
<defs>
<clipPath id="clip0_7264_1858">
<rect width="14" height="15" fill="white"/>
</clipPath>
</defs>
</svg>
