<svg width="33" height="32" viewBox="0 0 33 32" fill="none" xmlns="http://www.w3.org/2000/svg">
<path d="M3.51855 14.6667C3.51855 10.2669 3.51855 8.06704 4.88539 6.70021C6.25222 5.33337 8.45211 5.33337 12.8519 5.33337H14.1852C18.585 5.33337 20.7848 5.33337 22.1518 6.70021C23.5186 8.06704 23.5186 10.2669 23.5186 14.6667V17.3334C23.5186 21.7331 23.5186 23.933 22.1518 25.2999C20.7848 26.6667 18.585 26.6667 14.1852 26.6667H12.8519C8.45211 26.6667 6.25222 26.6667 4.88539 25.2999C3.51855 23.933 3.51855 21.7331 3.51855 17.3334V14.6667Z" stroke="white" stroke-width="2"/>
<path d="M23.5186 11.8744L23.6864 11.7359C26.5075 9.40827 27.918 8.24444 29.0516 8.80639C30.1852 9.36834 30.1852 11.2314 30.1852 14.9574V17.0425C30.1852 20.7686 30.1852 22.6316 29.0516 23.1936C27.918 23.7554 26.5075 22.5917 23.6864 20.264L23.5186 20.1254" stroke="white" stroke-width="2" stroke-linecap="round"/>
<path d="M16.1846 14.6666C17.2891 14.6666 18.1846 13.7712 18.1846 12.6666C18.1846 11.5621 17.2891 10.6666 16.1846 10.6666C15.08 10.6666 14.1846 11.5621 14.1846 12.6666C14.1846 13.7712 15.08 14.6666 16.1846 14.6666Z" stroke="white" stroke-width="2"/>
</svg>
