<svg width="31" height="26" viewBox="0 0 31 26" fill="none" xmlns="http://www.w3.org/2000/svg">
<path d="M27.1751 6.93052C27.1944 7.19957 27.1944 7.46867 27.1944 7.73772C27.1944 15.944 20.9483 25.3996 9.53244 25.3996C6.01542 25.3996 2.74827 24.381 0 22.613C0.499702 22.6706 0.980119 22.6898 1.49905 22.6898C4.40101 22.6898 7.07244 21.7097 9.20572 20.0377C6.47667 19.98 4.18964 18.1927 3.40167 15.7327C3.78607 15.7903 4.17042 15.8287 4.57405 15.8287C5.13137 15.8287 5.68875 15.7518 6.20762 15.6174C3.36327 15.0408 1.22994 12.5424 1.22994 9.52504V9.4482C2.05631 9.90945 3.01732 10.1977 4.03583 10.2361C2.36381 9.12141 1.26839 7.21879 1.26839 5.06629C1.26839 3.9132 1.57583 2.85617 2.11399 1.93367C5.16976 5.70052 9.76304 8.16046 14.9136 8.42957C14.8175 7.96832 14.7598 7.4879 14.7598 7.00743C14.7598 3.58647 17.5273 0.799805 20.9674 0.799805C22.7548 0.799805 24.3691 1.54933 25.503 2.7601C26.906 2.49106 28.2513 1.97213 29.4429 1.26105C28.9816 2.70248 28.0014 3.91326 26.7138 4.68195C27.963 4.54748 29.1738 4.20147 30.2885 3.72106C29.443 4.951 28.3859 6.04641 27.1751 6.93052V6.93052Z" fill="white"/>
</svg>
